<?xml version="1.0" standalone="no"?>
<!DOCTYPE svg PUBLIC "-//W3C//DTD SVG 20010904//EN"
 "http://www.w3.org/TR/2001/REC-SVG-20010904/DTD/svg10.dtd">
<svg version="1.0" xmlns="http://www.w3.org/2000/svg"
 width="1600.000000pt" height="1600.000000pt" viewBox="0 0 1600.000000 1600.000000"
 preserveAspectRatio="xMidYMid meet">
<metadata>
Created by potrace 1.11, written by Peter Selinger 2001-2013
</metadata>
<g transform="translate(0.000000,1600.000000) scale(0.100000,-0.100000)"
fill="#000000" stroke="none">
<path d="M9835 15968 c11 -47 16 -154 20 -388 2 -113 5 -241 7 -285 3 -51 0
-89 -7 -105 -8 -15 -9 -33 -4 -45 4 -11 8 -43 8 -72 1 -28 6 -64 11 -79 8 -20
7 -32 -5 -50 -8 -13 -15 -40 -15 -60 0 -33 -2 -36 -22 -29 -43 13 -351 25
-388 15 -46 -13 -126 -13 -170 0 -23 7 -53 7 -89 0 -68 -12 -131 -4 -131 19 0
9 -15 64 -34 122 -33 100 -62 164 -94 201 -9 11 -12 27 -7 47 5 25 2 35 -19
54 -16 15 -26 35 -26 53 -1 53 -18 106 -44 133 -14 15 -26 39 -26 53 0 14 -18
63 -39 110 -22 47 -44 110 -50 142 -17 92 -49 129 -92 106 -19 -11 -20 -17
-14 -73 4 -36 21 -91 40 -132 18 -38 38 -101 44 -140 7 -38 23 -92 36 -120 49
-102 95 -219 95 -241 0 -13 8 -45 19 -71 10 -26 21 -69 25 -95 4 -28 17 -60
32 -77 18 -22 53 -104 54 -128 0 -2 -13 -3 -29 -3 -16 0 -48 -7 -72 -15 -24
-9 -78 -16 -125 -16 -61 0 -91 -6 -118 -20 -21 -11 -56 -19 -83 -19 -33 0 -60
-8 -88 -25 -22 -13 -55 -25 -74 -25 -48 0 -138 -26 -195 -55 -27 -14 -58 -25
-68 -25 -11 0 -32 -7 -47 -14 -25 -14 -32 -13 -70 6 -27 13 -55 40 -79 74 -20
29 -46 56 -57 60 -32 10 -84 64 -116 122 -17 29 -43 59 -58 66 -33 18 -114
103 -135 143 -12 24 -24 32 -51 35 -65 8 -77 -15 -50 -92 18 -52 59 -101 96
-117 15 -6 43 -36 63 -67 19 -30 47 -63 61 -72 14 -9 32 -32 40 -50 7 -18 25
-40 40 -50 14 -9 32 -32 40 -50 7 -18 27 -40 43 -48 25 -13 50 -44 40 -51 -2
0 -25 -15 -53 -32 -27 -17 -67 -36 -87 -41 -21 -6 -50 -19 -65 -30 -15 -11
-64 -36 -108 -56 -44 -20 -95 -51 -112 -68 -18 -17 -52 -43 -77 -57 -24 -14
-61 -39 -82 -54 -22 -15 -73 -50 -114 -77 -41 -27 -95 -69 -120 -93 -25 -24
-66 -57 -92 -73 -25 -16 -108 -87 -183 -159 -75 -71 -143 -134 -152 -139 -8
-4 -23 -25 -32 -47 -10 -21 -47 -66 -83 -99 -36 -33 -89 -95 -116 -138 -27
-42 -64 -87 -81 -100 -18 -13 -34 -37 -40 -60 -7 -23 -28 -54 -53 -78 -49 -47
-178 -256 -178 -289 0 -12 -15 -42 -34 -66 -66 -88 -202 -386 -213 -469 -3
-25 -16 -59 -29 -76 -12 -17 -27 -46 -32 -65 -7 -30 -12 -34 -38 -31 -16 2
-76 4 -134 6 -58 2 -125 8 -150 14 -62 16 -141 15 -180 -2 -24 -10 -43 -11
-67 -4 -18 5 -38 6 -44 2 -6 -3 -66 -8 -133 -9 -85 -3 -136 -9 -167 -21 -24
-10 -64 -17 -89 -16 -51 2 -107 -13 -132 -36 -12 -10 -29 -13 -52 -9 -22 3
-43 0 -62 -12 -33 -20 -102 -41 -132 -41 -11 0 -33 -11 -49 -24 -15 -12 -57
-33 -93 -45 -36 -13 -74 -30 -85 -40 -11 -10 -63 -37 -115 -60 -52 -24 -104
-51 -115 -61 -11 -9 -33 -20 -48 -24 -41 -10 -93 -46 -112 -78 -10 -18 -25
-28 -40 -28 -24 0 -124 -80 -165 -132 -12 -16 -29 -28 -39 -28 -17 0 -50 -29
-135 -118 -22 -23 -52 -46 -67 -52 -15 -7 -32 -24 -37 -38 -6 -15 -25 -41 -44
-59 -141 -135 -156 -152 -163 -182 -4 -18 -18 -39 -33 -48 -48 -30 -69 -57
-99 -123 -16 -36 -50 -86 -76 -112 -25 -26 -58 -75 -73 -108 -15 -34 -35 -67
-45 -74 -18 -13 -59 -96 -59 -121 0 -8 -15 -30 -34 -49 -38 -38 -101 -154
-121 -225 -20 -70 -49 -146 -66 -172 -25 -41 -79 -178 -123 -314 -13 -38 -35
-92 -50 -120 -14 -27 -30 -75 -36 -105 -6 -30 -33 -101 -60 -157 -28 -56 -50
-114 -50 -131 0 -17 -9 -37 -21 -48 -33 -29 -60 -97 -53 -132 5 -24 2 -33 -15
-43 -11 -8 -30 -38 -41 -69 -12 -30 -30 -73 -41 -95 -10 -22 -19 -57 -19 -78
0 -38 -14 -67 -57 -120 -13 -16 -23 -38 -23 -50 0 -12 -9 -37 -20 -55 -11 -18
-20 -43 -20 -56 0 -29 -26 -93 -51 -124 -10 -13 -21 -39 -25 -58 -3 -19 -15
-51 -25 -71 -11 -21 -19 -47 -19 -58 0 -11 -7 -31 -16 -44 -9 -13 -27 -52 -39
-88 -13 -35 -32 -74 -43 -86 -11 -12 -28 -47 -37 -77 -20 -63 -27 -77 -60
-140 -13 -25 -24 -57 -24 -72 -1 -34 -30 -112 -76 -202 -19 -39 -35 -85 -35
-103 0 -21 -6 -36 -19 -42 -17 -9 -58 -75 -126 -202 -12 -21 -30 -49 -41 -61
-11 -13 -32 -44 -47 -69 -35 -62 -162 -174 -228 -202 -19 -7 -40 -21 -48 -30
-7 -10 -28 -17 -47 -17 -19 0 -49 -11 -70 -25 -20 -14 -43 -25 -51 -25 -8 0
-39 -11 -70 -25 -46 -21 -75 -27 -167 -31 -61 -2 -137 -9 -168 -15 -41 -7 -64
-7 -78 1 -11 6 -59 14 -105 18 l-85 8 0 -28 c0 -18 8 -31 22 -39 13 -7 48 -34
78 -60 30 -26 80 -57 110 -70 30 -12 70 -35 88 -51 18 -15 43 -28 55 -28 12 0
36 -7 52 -16 61 -32 120 -44 215 -43 52 1 108 -2 123 -6 22 -6 33 -2 52 15 19
18 30 21 64 15 44 -7 90 9 175 63 28 18 62 32 76 32 16 0 37 12 55 30 16 17
39 30 51 30 14 0 33 13 48 33 14 19 50 46 80 61 37 19 79 54 133 114 43 48
107 117 143 154 105 109 135 150 227 312 16 26 56 84 91 129 42 54 62 89 62
108 0 18 9 35 25 47 14 11 31 35 37 53 6 18 22 49 35 67 13 19 23 41 23 49 0
17 39 94 55 108 21 19 62 80 70 105 4 14 25 57 46 96 21 39 39 77 39 85 0 7
15 29 34 49 39 40 156 261 156 293 0 12 15 51 33 87 19 36 37 77 40 92 4 15
16 32 27 38 19 10 50 70 63 122 4 14 18 39 31 55 12 15 33 57 45 92 30 87 46
115 75 134 13 9 27 31 31 49 11 48 30 82 81 139 24 28 47 63 51 79 3 18 24 45
55 71 28 23 57 58 65 78 19 46 60 101 76 101 7 0 30 12 50 26 21 14 41 23 44
20 3 -3 -2 -9 -12 -12 -19 -8 -65 -102 -65 -134 0 -10 -11 -32 -25 -48 -31
-37 -45 -74 -45 -116 0 -34 -39 -114 -66 -136 -10 -9 -13 -23 -8 -46 5 -28 1
-40 -24 -69 -17 -19 -34 -51 -37 -72 -19 -117 -27 -141 -51 -162 -20 -17 -24
-28 -19 -54 5 -25 0 -40 -19 -66 -15 -19 -26 -49 -26 -65 0 -45 -55 -192 -84
-226 -19 -24 -24 -37 -19 -63 5 -35 -12 -79 -49 -126 -13 -17 -17 -33 -13 -53
5 -19 0 -38 -14 -62 -12 -18 -21 -45 -21 -59 0 -14 -11 -39 -25 -55 -15 -18
-25 -42 -25 -61 0 -18 -6 -44 -14 -59 -7 -15 -16 -44 -20 -64 -4 -20 -24 -75
-46 -121 -43 -94 -70 -179 -76 -239 -4 -47 -72 -185 -119 -243 -40 -48 -105
-177 -105 -205 0 -12 -12 -33 -26 -47 -14 -14 -32 -43 -40 -65 -30 -86 -108
-211 -170 -274 -43 -43 -64 -72 -64 -88 0 -22 -43 -86 -63 -95 -28 -11 -83
-72 -135 -149 -35 -51 -80 -102 -107 -122 -26 -19 -54 -50 -62 -68 -8 -19 -25
-37 -41 -43 -15 -5 -58 -43 -97 -83 -43 -45 -82 -75 -100 -80 -16 -4 -52 -29
-80 -55 -27 -27 -62 -51 -77 -55 -17 -4 -34 -18 -43 -36 -12 -23 -23 -30 -44
-30 -16 0 -44 -13 -66 -30 -21 -16 -48 -30 -61 -30 -12 0 -39 -15 -58 -34 -20
-18 -49 -38 -64 -43 -15 -6 -43 -16 -62 -23 -19 -6 -62 -20 -95 -30 -33 -9
-77 -25 -97 -34 -21 -9 -57 -16 -82 -16 -25 0 -57 -5 -72 -10 -20 -8 -36 -8
-56 1 -16 6 -32 9 -36 5 -9 -10 18 -26 44 -26 11 0 47 -14 80 -32 53 -29 69
-33 159 -36 62 -3 107 -10 120 -18 14 -10 37 -12 86 -8 39 4 80 2 97 -4 24 -8
44 -7 94 9 65 20 147 27 167 14 7 -3 27 3 46 14 24 14 44 18 68 14 24 -4 48 2
83 20 27 13 65 28 84 32 19 4 49 16 66 26 17 10 40 19 50 19 11 0 30 7 44 15
14 8 62 33 107 55 49 24 97 56 120 80 21 22 66 54 100 71 60 30 160 119 233
209 19 23 45 47 57 53 12 5 40 40 62 76 22 36 74 104 116 151 47 51 88 108
104 145 16 33 49 87 75 119 25 33 46 67 46 77 0 28 62 151 106 209 43 57 58
90 69 150 3 19 21 62 38 96 105 201 160 319 164 356 3 24 12 52 20 63 7 11 18
38 24 60 6 22 18 48 26 57 8 9 30 77 49 149 19 75 42 142 53 153 17 19 71 187
84 261 3 17 13 55 21 85 9 30 16 70 16 89 0 19 7 42 15 51 9 10 25 50 36 90
11 40 29 84 39 98 12 15 20 40 20 64 0 27 10 55 35 94 22 34 35 67 35 88 0 23
11 48 36 80 19 25 40 61 46 79 6 17 31 61 55 96 23 35 43 72 43 83 0 12 16 38
35 59 19 22 35 45 35 53 0 8 25 37 55 65 31 27 60 63 66 79 5 16 22 35 37 41
27 13 116 77 162 117 14 12 42 24 63 26 l38 4 -44 -38 c-25 -20 -54 -57 -65
-81 -11 -24 -32 -51 -45 -60 -17 -11 -31 -35 -42 -73 -9 -32 -27 -71 -40 -88
-13 -17 -26 -44 -30 -61 -12 -53 -76 -214 -95 -238 -29 -37 -51 -99 -45 -128
4 -18 -1 -38 -14 -60 -12 -19 -21 -46 -21 -61 0 -15 -9 -42 -20 -61 -14 -24
-19 -43 -14 -62 4 -16 0 -38 -10 -58 -8 -18 -27 -62 -41 -99 -21 -53 -24 -72
-15 -88 8 -15 6 -28 -10 -59 -11 -22 -20 -53 -20 -68 0 -16 -6 -37 -13 -48
-30 -43 -64 -185 -77 -317 -5 -51 -16 -101 -28 -125 -11 -21 -28 -78 -37 -128
-9 -49 -22 -99 -29 -110 -17 -27 -36 -106 -36 -152 0 -21 -11 -60 -24 -88 -13
-27 -29 -70 -35 -95 -35 -131 -45 -179 -46 -215 0 -22 -8 -55 -18 -72 -10 -18
-15 -43 -12 -55 3 -13 -8 -66 -25 -118 -16 -52 -30 -111 -30 -130 -1 -40 -22
-104 -42 -128 -8 -9 -27 -57 -43 -106 -16 -49 -37 -96 -48 -105 -40 -33 -47
-43 -47 -68 0 -17 -13 -40 -36 -62 -19 -20 -69 -76 -111 -124 -51 -60 -91 -96
-124 -113 -56 -28 -62 -46 -20 -64 75 -31 269 28 343 104 18 19 49 40 69 49
40 17 105 98 120 151 6 23 18 37 38 46 21 8 41 35 80 109 28 54 51 108 51 120
0 11 15 42 34 68 47 67 61 98 81 178 10 38 33 98 52 132 25 44 33 71 29 87 -4
17 1 33 17 53 39 50 57 90 57 130 0 27 6 46 20 58 12 11 20 31 20 50 0 18 11
46 25 65 14 19 25 42 25 52 0 10 8 35 19 56 10 20 22 63 25 94 5 41 16 67 37
94 16 20 29 49 29 63 0 15 11 42 25 60 26 37 82 182 91 239 3 20 19 62 35 94
16 32 29 62 29 69 0 6 15 46 34 89 21 48 32 86 29 100 -4 13 2 32 15 50 12 16
29 59 38 97 19 76 37 118 65 148 10 11 24 47 32 80 8 33 24 76 36 95 11 19 21
43 21 52 0 9 11 29 24 45 13 15 38 56 57 91 45 87 135 193 185 217 22 11 60
36 84 55 48 38 169 75 204 63 12 -4 46 -8 76 -9 180 -4 275 -35 364 -118 l49
-46 -31 0 c-17 0 -43 -5 -58 -10 -19 -8 -49 -8 -99 0 -54 8 -83 8 -116 -1 -24
-7 -69 -13 -99 -14 -76 -2 -159 -32 -195 -70 -16 -17 -52 -40 -80 -50 -52 -20
-149 -110 -161 -150 -4 -11 -22 -37 -40 -57 -19 -21 -47 -64 -63 -95 -114
-230 -139 -285 -151 -337 -8 -36 -21 -63 -33 -70 -24 -14 -57 -78 -57 -111 0
-14 -11 -46 -25 -72 -13 -27 -27 -60 -29 -74 -3 -14 -17 -41 -30 -60 -35 -47
-106 -185 -106 -204 0 -9 -19 -39 -42 -66 -27 -33 -38 -53 -32 -59 19 -19 70
9 102 55 17 24 56 63 87 88 57 45 170 180 192 229 7 15 24 35 38 44 14 9 33
33 41 52 30 73 109 194 131 203 12 4 30 21 40 36 9 15 45 55 79 88 34 33 63
65 65 72 7 21 167 113 197 113 16 0 46 12 67 26 24 16 46 23 59 20 12 -3 47 0
78 6 47 10 66 9 115 -4 32 -9 76 -21 98 -27 23 -6 79 -39 125 -73 47 -35 105
-74 129 -88 82 -46 70 -54 -76 -46 -118 7 -131 6 -154 -12 -13 -11 -44 -22
-69 -25 -25 -3 -71 -9 -102 -13 -41 -5 -63 -13 -79 -30 -16 -17 -33 -24 -60
-24 -30 0 -45 -8 -83 -44 -25 -25 -65 -58 -89 -75 -54 -36 -122 -111 -173
-188 -21 -32 -50 -68 -64 -80 -15 -12 -32 -41 -39 -65 -7 -24 -23 -63 -36 -88
-13 -25 -33 -82 -45 -125 -12 -44 -30 -93 -40 -110 -21 -35 -50 -131 -51 -172
-1 -15 -8 -49 -17 -75 -13 -38 -13 -52 -4 -73 10 -21 9 -32 -4 -56 -9 -18 -12
-39 -8 -52 11 -33 6 -93 -10 -132 -12 -28 -13 -53 -5 -132 8 -80 8 -103 -5
-133 -8 -19 -17 -74 -20 -121 -3 -48 -12 -104 -21 -125 -9 -22 -13 -50 -10
-65 4 -16 0 -40 -8 -56 -8 -15 -18 -44 -22 -63 -4 -19 -20 -50 -36 -68 -16
-18 -29 -39 -29 -47 0 -29 -51 -129 -88 -170 -20 -24 -45 -54 -54 -68 -10 -14
-36 -33 -58 -44 -21 -10 -40 -23 -40 -29 0 -11 68 -26 115 -26 72 0 123 17
174 55 29 23 60 52 69 65 8 12 30 29 48 37 19 8 40 27 50 47 9 18 25 44 35 57
11 13 19 37 19 53 0 33 23 82 53 116 15 16 20 34 19 58 -2 20 4 46 12 59 8 12
19 44 24 71 43 209 56 263 73 290 10 17 21 57 25 90 3 32 13 69 21 82 10 16
12 36 8 61 -3 20 -1 50 5 66 6 17 16 51 20 78 5 26 21 72 36 103 15 31 35 82
45 113 56 175 120 332 162 397 14 23 49 57 77 75 29 18 57 44 64 58 31 57 317
86 476 48 36 -9 74 -18 85 -20 11 -3 -15 -5 -57 -6 -42 0 -80 -5 -83 -11 -3
-6 -30 -10 -59 -10 -37 0 -58 -5 -67 -16 -21 -25 -83 -62 -111 -66 -32 -4
-269 -252 -287 -299 -7 -19 -28 -65 -47 -103 -19 -37 -34 -78 -34 -90 0 -11
-9 -41 -20 -65 -11 -24 -20 -53 -20 -66 0 -12 -9 -43 -20 -67 -15 -34 -19 -65
-18 -127 0 -70 -3 -87 -21 -112 -18 -24 -21 -38 -16 -69 4 -23 2 -47 -5 -61
-12 -21 -19 -155 -24 -444 -1 -71 -4 -137 -7 -145 -2 -8 0 -17 6 -20 5 -3 13
16 16 41 9 63 67 268 84 301 8 14 15 46 15 71 0 34 5 48 20 58 14 10 25 35 35
80 7 36 25 83 40 104 14 22 24 47 22 57 -6 22 28 86 59 111 14 10 31 34 39 54
21 49 49 85 140 175 119 118 144 138 166 138 11 0 36 8 57 19 24 12 44 16 57
10 11 -4 47 -8 81 -8 33 -1 85 -8 115 -17 l54 -17 -47 -12 c-50 -13 -107 -45
-129 -71 -7 -9 -44 -31 -82 -50 -82 -42 -149 -101 -184 -163 -15 -25 -39 -59
-54 -76 -15 -16 -31 -43 -35 -60 -4 -16 -24 -66 -46 -109 -21 -44 -40 -95 -44
-115 -3 -20 -13 -56 -22 -81 -10 -27 -16 -71 -15 -110 1 -36 -3 -83 -9 -105
-26 -98 -26 -524 0 -588 7 -16 12 -62 12 -103 0 -49 7 -96 20 -135 14 -39 18
-72 14 -94 -3 -20 -1 -42 7 -56 8 -13 16 -51 19 -83 3 -33 10 -61 16 -63 16
-5 24 100 19 247 -3 69 -1 145 4 170 16 74 41 253 41 285 0 17 9 47 20 68 12
21 20 53 18 72 -1 20 5 41 14 52 19 21 63 149 71 208 4 23 34 95 67 160 45 89
72 129 103 155 55 45 116 111 122 131 7 20 128 112 176 132 102 44 162 67 167
63 9 -10 -151 -226 -169 -226 -10 0 -59 -93 -59 -113 0 -22 -38 -103 -54 -116
-8 -7 -18 -27 -22 -44 -3 -18 -14 -48 -24 -67 -9 -19 -18 -60 -18 -92 -1 -32
-8 -70 -16 -85 -10 -21 -12 -52 -9 -121 4 -64 2 -106 -7 -133 -11 -33 -11 -50
-1 -92 7 -29 14 -91 16 -139 2 -60 10 -101 24 -134 12 -25 21 -57 21 -69 0
-12 11 -53 25 -89 14 -37 25 -82 25 -101 0 -19 5 -35 10 -35 6 0 10 27 10 60
0 33 7 77 15 97 11 25 15 63 13 122 -2 70 1 94 19 131 22 47 42 129 67 269 11
61 21 91 39 110 14 14 28 39 31 55 4 17 15 41 25 55 10 14 29 51 41 81 25 60
72 116 104 126 12 4 45 28 73 54 48 44 56 48 91 43 22 -3 63 0 92 6 29 6 54
10 56 8 5 -5 -26 -108 -47 -153 -11 -23 -19 -50 -19 -60 0 -11 -14 -60 -30
-109 -47 -136 -58 -193 -57 -275 1 -57 -3 -82 -17 -102 -15 -23 -17 -52 -18
-235 0 -228 4 -314 21 -385 6 -26 8 -61 5 -78 -5 -23 -1 -39 15 -60 12 -17 21
-44 21 -65 0 -20 13 -61 29 -93 15 -31 32 -68 36 -82 4 -13 21 -45 37 -70 17
-25 49 -74 72 -110 51 -81 72 -85 67 -15 -1 28 -11 76 -22 107 -13 40 -19 85
-19 151 0 52 -5 108 -11 126 -9 24 -8 35 2 47 9 11 13 53 14 143 l0 128 40 59
c41 59 64 76 119 90 l29 7 -9 -49 c-11 -65 -9 -98 9 -164 13 -49 21 -95 42
-231 3 -20 16 -52 30 -70 22 -31 75 -135 103 -201 6 -16 15 -28 20 -28 17 0
52 -41 52 -61 0 -25 43 -89 96 -144 22 -22 72 -85 113 -140 173 -234 189 -251
203 -237 6 6 2 21 -10 42 -16 25 -18 39 -11 64 7 25 5 36 -10 57 -21 28 -39
100 -48 184 -3 28 -10 56 -16 64 -15 18 -26 108 -32 271 -3 74 -10 165 -16
202 -8 49 -8 82 1 123 7 34 9 95 6 153 -5 79 -4 92 6 67 6 -16 31 -53 55 -81
24 -28 48 -65 54 -82 13 -39 137 -142 206 -172 28 -12 67 -39 86 -61 20 -21
44 -39 55 -39 11 0 32 -16 46 -35 21 -28 34 -35 60 -35 25 0 38 -7 50 -24 16
-26 146 -96 177 -96 10 0 20 -9 24 -19 3 -11 24 -38 45 -60 22 -22 51 -63 65
-91 14 -28 50 -79 80 -115 30 -35 55 -74 55 -85 0 -12 -13 -41 -30 -65 -16
-24 -30 -48 -30 -53 0 -27 -61 -153 -94 -197 -21 -27 -46 -66 -55 -85 -8 -19
-26 -48 -38 -63 -13 -16 -23 -38 -23 -50 -1 -42 -58 -143 -137 -240 -13 -16
-23 -42 -23 -57 0 -19 -7 -33 -21 -41 -38 -20 -61 -91 -59 -182 2 -45 -1 -125
-4 -177 -4 -52 -7 -110 -6 -127 3 -115 1 -156 -13 -223 -12 -54 -14 -104 -10
-177 5 -87 3 -105 -13 -132 -15 -26 -16 -35 -6 -51 6 -11 12 -40 12 -65 0 -38
-4 -46 -27 -59 -16 -8 -39 -26 -53 -41 -36 -40 -83 -57 -116 -45 -21 8 -33 6
-61 -10 -19 -11 -52 -20 -76 -20 -59 0 -34 -19 34 -26 30 -3 74 -14 99 -24 25
-10 70 -22 100 -26 83 -10 84 -12 85 -97 l1 -74 -59 -23 c-40 -16 -63 -32 -72
-51 -10 -18 -26 -30 -47 -34 -18 -4 -46 -20 -63 -35 -30 -28 -149 -90 -172
-90 -7 0 -21 -8 -31 -18 -16 -16 -62 -50 -126 -94 -6 -4 -7 -10 -3 -14 4 -4
18 3 31 15 20 19 32 22 63 17 21 -4 85 -9 143 -12 58 -4 111 -11 119 -18 8 -6
42 -11 76 -11 68 0 66 1 200 -121 85 -77 155 -134 165 -134 5 0 21 -18 35 -40
14 -22 31 -40 38 -40 23 0 99 -57 118 -89 10 -17 29 -35 42 -40 39 -15 143
-99 155 -125 14 -31 32 -34 32 -6 0 43 -50 140 -141 275 -52 77 -100 152 -107
168 -6 15 -23 32 -37 37 -14 5 -25 11 -25 13 0 9 199 0 211 -10 23 -19 102
-43 144 -43 22 0 49 -7 59 -15 11 -8 39 -15 62 -15 23 0 60 -6 82 -14 23 -8
79 -20 124 -27 47 -7 95 -21 110 -31 33 -23 98 -36 98 -20 0 6 -13 21 -29 34
-15 13 -37 36 -47 52 -18 29 -141 96 -175 96 -10 0 -31 11 -47 25 -17 14 -42
25 -58 25 -15 0 -44 11 -63 25 -26 17 -64 29 -131 39 -110 18 -203 44 -157 45
16 1 37 6 48 12 14 7 29 7 55 -3 25 -9 42 -9 62 -2 26 10 80 7 245 -12 34 -4
54 -2 72 10 19 12 30 13 54 5 20 -7 41 -8 59 -2 22 8 94 9 177 4 6 -1 35 -17
65 -36 34 -22 72 -37 105 -42 36 -4 57 -14 75 -33 14 -15 57 -44 95 -63 41
-21 101 -65 145 -106 41 -39 80 -71 87 -71 11 0 31 -27 102 -133 13 -20 28
-37 33 -37 10 0 0 113 -14 149 -15 42 -132 200 -152 207 -41 14 -140 95 -153
125 -7 17 -22 33 -34 36 -16 4 -17 8 -7 14 18 12 99 11 135 -1 20 -8 38 -8 57
0 23 8 33 7 56 -10 23 -16 37 -19 93 -13 56 5 70 3 100 -16 21 -13 49 -21 73
-20 22 1 52 -4 67 -10 16 -6 44 -11 63 -11 20 0 43 -4 53 -10 10 -5 51 -16 91
-24 40 -9 80 -22 90 -31 37 -34 52 -8 25 45 -19 36 -62 70 -88 70 -12 0 -33
11 -47 25 -15 14 -58 36 -96 49 -143 50 -187 67 -209 82 -13 8 -50 18 -82 21
-37 4 -77 17 -111 36 -43 24 -61 28 -95 24 l-41 -6 33 21 c30 19 51 21 239 25
114 2 223 4 242 5 19 0 64 -5 100 -11 36 -6 97 -15 135 -20 39 -5 89 -13 113
-17 34 -5 42 -4 42 9 0 29 -55 64 -113 70 -30 4 -75 16 -101 28 -27 11 -74 22
-110 24 -35 1 -73 8 -85 14 -17 9 -30 9 -56 1 -29 -10 -39 -8 -65 6 -25 16
-35 16 -62 6 -17 -6 -35 -9 -39 -6 -23 14 -129 23 -154 14 -18 -7 -39 -7 -63
-1 -24 7 -48 7 -77 -1 -50 -14 -195 3 -231 26 -12 8 -25 30 -29 48 -13 55 -10
200 5 228 7 14 15 56 16 93 3 49 9 77 24 97 12 17 20 44 20 68 0 21 4 52 9 68
5 16 19 79 31 139 12 61 29 125 38 144 10 19 17 55 18 80 1 27 12 69 27 102
15 31 30 78 33 105 8 65 23 113 45 146 11 14 19 38 19 52 0 15 5 55 12 91 12
61 13 64 47 70 18 4 43 12 55 20 12 7 50 21 86 30 44 10 75 26 95 45 17 17 37
30 44 30 7 0 34 11 60 23 25 13 60 29 76 35 67 23 146 60 163 74 26 24 99 58
122 58 11 0 45 20 76 45 38 31 64 45 85 45 37 0 105 34 119 59 5 11 20 23 32
27 54 16 212 97 275 141 105 72 162 103 187 103 13 0 34 8 47 19 13 10 40 26
59 36 19 10 49 30 66 45 18 15 69 42 115 59 46 18 101 47 124 65 69 57 118 76
213 81 71 5 212 52 240 81 13 13 29 24 36 24 8 0 38 11 68 25 30 14 79 29 109
35 30 6 96 30 147 55 52 25 101 45 110 45 10 0 39 15 66 33 94 62 121 77 144
77 33 0 93 33 125 69 15 17 34 31 42 31 8 0 32 15 52 33 46 41 146 97 171 97
11 0 27 10 38 21 10 12 53 46 94 77 41 30 96 73 122 96 26 23 64 54 84 70 20
17 41 40 47 53 6 13 39 44 74 69 35 25 63 49 63 54 0 15 138 150 154 150 15 0
26 21 26 51 0 13 12 25 33 34 39 16 127 124 127 156 0 12 17 39 38 60 79 80
163 200 176 253 4 16 18 43 32 59 13 16 24 39 24 51 0 13 9 35 20 49 12 14 26
41 32 59 13 39 42 84 75 116 12 13 23 34 23 48 0 14 9 42 20 64 11 22 20 50
20 63 0 13 11 34 25 47 27 26 45 76 45 130 0 19 9 49 20 65 11 17 20 37 20 45
0 9 9 34 20 55 14 28 19 50 15 72 -4 20 0 44 10 62 8 17 15 46 15 66 0 20 6
46 14 58 20 33 39 144 37 215 -2 62 -2 64 21 57 40 -13 76 -34 90 -53 19 -27
72 -52 110 -52 21 0 40 -7 51 -20 17 -20 44 -19 32 1 -4 5 -10 39 -15 77 -5
37 -13 85 -19 107 -26 101 -41 187 -41 235 0 70 -19 139 -47 173 -19 23 -23
40 -23 91 0 48 -5 69 -20 89 -11 14 -20 39 -20 56 0 40 -25 104 -66 166 -39
60 -65 126 -88 222 -12 47 -26 79 -42 94 -15 14 -24 34 -24 51 0 19 -10 38
-29 56 -16 15 -32 43 -36 62 -4 19 -18 48 -30 65 -13 16 -35 54 -49 83 -15 28
-44 75 -65 103 -22 29 -42 65 -45 81 -3 16 -27 52 -54 81 -26 29 -54 65 -61
82 -7 16 -21 35 -32 43 -11 7 -28 30 -38 50 -11 20 -40 57 -64 81 -28 27 -48
56 -51 76 -5 24 -14 36 -37 45 -16 7 -35 22 -41 34 -15 28 -160 196 -170 196
-16 0 -80 65 -98 100 -10 20 -36 51 -57 68 -21 17 -47 40 -58 52 -11 11 -37
38 -58 58 l-37 38 15 94 c8 52 19 113 24 135 5 22 12 91 16 154 3 63 13 131
21 150 12 29 13 44 4 83 -9 36 -9 56 0 84 9 28 10 50 2 88 -19 85 -23 210 -10
259 10 40 9 48 -10 78 -17 28 -20 44 -15 94 5 61 -25 252 -52 325 -7 19 -16
59 -20 89 -3 30 -12 66 -19 80 -7 14 -19 65 -26 114 -9 62 -19 98 -38 125 -14
20 -31 58 -38 84 -6 26 -21 63 -33 81 -12 20 -21 51 -21 73 0 25 -9 52 -25 76
-14 20 -34 59 -45 87 -40 103 -123 277 -146 307 -21 29 -84 156 -84 172 0 4
-25 36 -55 72 -30 36 -76 94 -102 130 -26 36 -64 85 -84 110 -21 25 -44 61
-52 80 -16 40 -70 97 -206 219 -52 47 -109 108 -127 137 -19 29 -59 72 -90 96
-31 24 -105 83 -163 131 -58 48 -129 99 -158 113 -28 14 -75 48 -105 76 -103
98 -299 219 -393 242 -16 4 -47 21 -67 37 -22 17 -58 33 -88 39 -54 10 -98 30
-145 65 -16 12 -40 25 -51 29 l-22 7 25 77 c14 42 36 114 49 160 12 46 29 91
38 100 19 22 36 65 46 122 8 45 29 111 59 184 9 22 14 50 13 62 -2 13 10 52
26 86 38 79 85 224 101 308 7 35 21 76 32 91 10 15 19 38 19 52 0 13 6 40 14
58 7 19 17 49 21 67 l7 32 -61 0 c-53 0 -62 -3 -77 -25 -9 -14 -13 -32 -10
-41 4 -9 -3 -33 -15 -53 -31 -52 -74 -176 -115 -331 -20 -74 -46 -153 -59
-175 -41 -67 -52 -96 -80 -199 -14 -55 -35 -112 -46 -127 -11 -16 -24 -50 -28
-76 -10 -60 -24 -95 -45 -112 -8 -7 -18 -29 -22 -50 -4 -20 -14 -47 -24 -61
-9 -14 -22 -40 -29 -57 -16 -39 -35 -42 -91 -13 -22 11 -75 27 -118 36 -42 8
-98 24 -124 35 -25 10 -115 32 -200 49 -84 16 -162 32 -174 35 -31 7 -46 47
-32 86 8 24 8 40 -1 66 -7 18 -16 69 -20 112 -5 43 -12 84 -16 91 -4 7 -12 79
-17 159 -10 178 -10 185 -2 242 4 33 1 55 -10 77 -9 17 -15 52 -15 79 0 26 0
63 -1 81 -1 17 -2 64 -3 102 l-2 70 -64 0 -63 0 7 -32z m605 -2438 c0 -28 -3
-30 -35 -30 -28 0 -35 4 -35 20 0 21 24 39 53 40 12 0 17 -8 17 -30z m-139
-40 c15 -8 19 -22 19 -61 0 -58 -9 -64 -75 -55 -39 6 -45 10 -45 31 0 13 5 27
11 30 5 4 8 12 6 18 -6 17 23 47 45 47 11 0 28 -5 39 -10z m249 -85 c0 -33 -2
-35 -35 -35 -63 0 -42 45 33 69 1 1 2 -15 2 -34z m-870 -28 c0 -31 -3 -33 -35
-35 -31 -2 -35 0 -35 22 0 20 7 27 33 35 17 5 33 10 35 10 1 1 2 -14 2 -32z
m340 -57 c0 -28 -3 -30 -35 -30 -28 0 -35 4 -35 20 0 21 24 39 53 40 12 0 17
-8 17 -30z m1137 2 c-37 -41 -156 -320 -187 -440 -26 -103 -75 -273 -84 -293
-11 -25 2 -28 84 -18 74 10 191 23 300 34 l55 5 -40 -18 c-22 -11 -47 -27 -55
-37 -8 -9 -50 -41 -95 -70 -44 -29 -105 -71 -135 -94 -30 -22 -60 -41 -66 -41
-23 0 -119 98 -143 145 -36 72 -41 204 -11 310 25 93 64 181 93 212 18 20 18
23 4 29 -9 3 -32 1 -51 -6 -20 -6 -40 -9 -46 -5 -11 7 -13 75 -2 91 14 21 157
108 241 146 47 21 97 45 111 52 35 20 46 19 27 -2z m-1320 -21 c2 -22 -3 -30
-20 -35 -41 -11 -48 -7 -45 21 3 25 15 34 58 42 3 1 6 -12 7 -28z m608 -49
c-6 -5 -37 -17 -70 -26 -123 -36 -309 -108 -335 -131 -8 -7 -33 -22 -56 -33
-76 -38 -238 -167 -318 -253 -73 -78 -146 -174 -146 -191 0 -4 -23 -47 -51
-94 -86 -145 -125 -248 -180 -474 -18 -73 -18 -73 -13 -20 3 30 9 69 14 85 4
17 11 57 15 90 3 33 17 98 31 145 14 47 34 118 45 158 25 90 120 275 180 350
126 159 210 226 367 297 127 57 240 86 372 95 58 4 116 8 130 8 14 1 20 -2 15
-6z m-897 -34 c8 -7 12 -28 10 -57 l-3 -46 -45 -3 c-27 -2 -53 3 -64 11 -19
14 -19 16 -3 41 12 17 13 26 5 26 -6 0 -1 11 12 26 25 26 58 27 88 2z m132
-78 c0 -23 -5 -30 -20 -31 -11 -1 -26 -2 -32 -3 -7 -1 -13 10 -13 24 0 17 7
26 25 31 39 11 40 11 40 -21z m938 -75 c4 -4 6 -28 4 -53 -1 -26 -4 -90 -7
-142 -2 -52 -5 -106 -6 -120 -1 -31 25 -140 40 -168 6 -11 11 -32 11 -47 0
-70 116 -230 181 -250 13 -4 38 -22 54 -40 26 -27 41 -34 89 -40 63 -8 180 -1
218 14 14 5 44 4 75 -2 40 -8 65 -8 101 2 27 6 60 10 73 7 13 -3 63 -8 110
-11 80 -5 238 -43 263 -64 6 -5 42 -21 79 -35 38 -14 82 -37 99 -51 16 -14 37
-25 47 -25 20 0 45 -25 55 -55 4 -11 27 -36 52 -55 35 -27 56 -56 90 -125 25
-50 44 -103 44 -122 0 -49 -28 -144 -49 -167 -10 -12 -24 -31 -30 -43 -15 -29
-127 -113 -171 -129 -19 -7 -61 -20 -92 -29 -31 -9 -62 -23 -69 -31 -8 -10
-15 -11 -24 -4 -10 8 -17 -1 -30 -39 l-16 -50 -53 43 c-89 72 -173 119 -194
107 -30 -16 -102 -100 -118 -136 -31 -74 -6 -210 40 -220 11 -2 53 -9 91 -15
39 -6 82 -14 97 -16 l26 -5 -51 -82 c-58 -92 -250 -292 -332 -345 l-50 -33
-23 73 c-12 40 -37 102 -55 138 l-32 65 -68 -1 c-58 -1 -74 -5 -110 -30 -72
-51 -130 -194 -92 -225 10 -8 51 -45 92 -84 l74 -69 -78 -39 c-43 -21 -106
-49 -139 -62 -66 -25 -311 -88 -383 -99 -39 -6 -43 -5 -36 11 22 58 55 191 55
222 0 64 -70 113 -162 114 -66 1 -143 -28 -197 -74 l-25 -20 29 -117 c15 -64
30 -123 33 -131 4 -12 -9 -13 -79 -8 -47 3 -112 12 -144 20 -33 9 -82 20 -110
27 -27 6 -77 24 -110 40 -33 16 -70 32 -83 35 -23 7 -22 7 16 49 21 23 51 63
67 89 l27 48 -26 38 c-73 106 -181 145 -289 107 -20 -8 -39 -11 -41 -7 -2 3
-17 49 -34 101 -31 99 -49 190 -37 190 4 0 43 -30 88 -66 82 -67 227 -144 342
-184 113 -39 370 -46 520 -15 105 22 243 59 287 75 108 42 264 114 293 136 17
12 46 30 65 39 46 23 150 105 225 177 32 32 62 58 66 58 7 0 107 127 149 190
85 127 86 129 32 128 -59 -1 -124 23 -162 59 -20 18 -41 33 -47 33 -6 0 -28
19 -49 43 -150 166 -168 189 -234 287 -110 166 -197 247 -297 274 -32 9 -66
21 -75 26 -34 19 -39 12 -37 -62 1 -40 -3 -85 -9 -100 -6 -15 -9 -35 -6 -43 7
-18 -36 -94 -83 -146 -29 -32 -43 -39 -87 -44 -37 -5 -63 -2 -89 9 -45 18
-105 63 -118 87 -14 27 -41 177 -37 213 3 30 2 31 -41 34 -37 3 -52 11 -94 52
-64 63 -86 122 -97 267 -9 107 -8 114 15 168 14 30 25 68 25 83 0 16 11 43 25
62 14 19 25 39 25 45 0 7 35 48 78 92 64 68 92 88 167 124 51 25 114 47 145
51 30 4 86 12 123 17 38 5 71 12 75 16 8 8 120 0 130 -10z m-1098 -110 c0 -33
-2 -35 -35 -35 -29 0 -35 4 -35 20 0 17 39 45 68 50 1 0 2 -16 2 -35z m-244
-181 c-3 -8 -19 -14 -36 -14 -50 0 -37 52 15 62 21 4 32 -20 21 -48z m84 -114
c0 -28 -3 -30 -35 -30 -28 0 -35 4 -35 20 0 21 24 39 53 40 12 0 17 -8 17 -30z
m-164 -176 c-3 -8 -19 -14 -36 -14 -50 0 -37 52 15 62 21 4 32 -20 21 -48z
m3079 -69 c68 -19 140 -67 161 -107 29 -54 25 -186 -8 -272 -30 -79 -48 -103
-48 -65 0 35 -50 116 -107 174 -85 87 -254 161 -439 194 -68 12 -270 13 -389
2 -77 -7 -104 -6 -74 3 38 11 414 78 484 86 106 11 357 3 420 -15z m-3045 -95
c0 -28 -3 -30 -35 -30 -29 0 -35 4 -35 20 0 12 10 24 23 30 38 15 47 12 47
-20z m0 -235 c0 -33 -2 -35 -35 -35 -29 0 -35 4 -35 20 0 17 39 45 68 50 1 0
2 -16 2 -35z m-3491 -251 c13 -10 68 -25 123 -35 71 -13 117 -27 164 -53 35
-20 77 -36 92 -36 30 0 106 -32 116 -49 4 -6 25 -11 47 -11 32 0 50 -8 84 -36
24 -20 65 -42 90 -50 26 -7 68 -29 93 -47 46 -33 174 -97 194 -97 6 0 33 -23
61 -51 28 -29 75 -67 106 -87 30 -19 70 -51 89 -70 20 -19 54 -43 78 -53 30
-14 45 -28 53 -49 5 -17 25 -45 43 -63 18 -19 48 -53 67 -76 18 -23 44 -46 57
-51 27 -11 110 -113 118 -146 4 -13 38 -72 76 -131 42 -63 73 -123 76 -145 5
-29 14 -42 40 -57 28 -17 34 -26 34 -56 0 -21 12 -54 29 -82 27 -45 71 -181
71 -221 0 -10 12 -29 26 -43 21 -20 25 -31 21 -60 -3 -20 0 -44 5 -54 15 -26
40 -133 43 -186 2 -26 9 -57 17 -70 7 -13 13 -53 13 -89 0 -36 8 -105 17 -155
14 -74 16 -128 12 -310 -9 -375 -10 -397 -27 -495 -9 -52 -17 -117 -17 -143 0
-26 -7 -61 -15 -77 -14 -26 -64 -70 -80 -70 -4 0 -6 84 -4 188 2 117 -1 195
-7 207 -6 11 -9 63 -8 115 3 127 -32 473 -51 510 -8 16 -15 44 -15 63 0 20 -9
46 -21 61 -14 18 -23 50 -29 99 -20 173 -31 220 -71 292 -21 40 -39 81 -39 93
0 11 -11 33 -24 49 -22 26 -36 65 -50 133 -3 14 -21 51 -41 84 -19 32 -35 71
-35 87 0 22 -7 32 -30 44 -23 12 -30 22 -30 46 0 41 -23 83 -65 115 -20 15
-35 35 -35 47 0 26 -44 91 -75 111 -13 9 -26 30 -30 48 -4 17 -29 55 -55 82
-26 28 -50 63 -53 77 -4 16 -29 43 -61 68 -30 24 -69 65 -87 92 -19 30 -53 63
-83 83 -28 18 -68 53 -88 77 -54 63 -58 66 -110 105 -27 19 -55 48 -63 63 -10
19 -35 39 -78 58 -35 17 -87 51 -115 76 -56 50 -101 77 -128 77 -9 0 -34 18
-55 40 -21 22 -60 51 -86 64 -27 13 -66 33 -88 45 -22 11 -62 25 -88 30 -26 5
-55 15 -65 24 -30 26 -80 47 -114 48 -31 1 -32 1 -8 9 37 12 43 11 69 -6z
m-949 -302 c48 -15 125 -32 185 -41 28 -4 60 -12 72 -19 12 -7 31 -12 42 -12
11 0 22 -3 25 -8 2 -4 -73 -8 -167 -8 -95 0 -203 -6 -242 -13 -177 -32 -307
-62 -390 -90 -49 -17 -96 -31 -105 -31 -13 0 -72 -27 -235 -107 -105 -52 -232
-121 -270 -147 -22 -16 -51 -32 -64 -37 -48 -19 -219 -139 -251 -176 -48 -57
-16 0 37 65 25 30 59 70 76 87 18 18 46 52 64 77 56 80 346 310 405 322 16 3
43 16 61 29 41 30 139 67 180 67 18 1 43 7 57 15 14 8 52 15 85 15 33 0 85 7
115 14 65 16 269 15 320 -2z m4598 -73 c-7 -5 -21 -9 -31 -9 -30 0 -18 53 13
60 21 5 26 2 28 -18 2 -14 -2 -29 -10 -33z m2451 -440 c83 -33 83 -34 50 -42
-41 -11 -189 6 -317 35 -104 24 -120 39 -106 102 15 70 12 70 156 2 73 -35
171 -78 217 -97z m-2399 46 c0 -33 -2 -35 -35 -35 -28 0 -35 4 -35 19 0 21 16
37 45 44 11 2 21 5 23 6 1 0 2 -15 2 -34z m201 -91 c28 -14 30 -19 27 -62 -3
-47 -3 -47 -42 -50 -79 -7 -107 18 -69 60 12 13 13 18 3 18 -9 0 -5 9 10 25
28 29 32 30 71 9z m2149 -164 c0 -27 -3 -30 -31 -30 -26 0 -30 3 -27 22 2 14
13 25 28 29 14 4 26 7 28 8 1 1 2 -12 2 -29z m-1950 -30 c0 -27 -3 -30 -30
-30 -25 0 -30 4 -30 24 0 23 12 32 48 35 7 1 12 -11 12 -29z m2237 -92 c7 -6
13 -32 13 -59 l0 -49 -54 0 c-67 0 -87 17 -62 55 11 17 13 25 4 25 -6 0 -1 11
12 26 25 26 58 27 87 2z m-5987 -18 c13 -8 13 -10 -2 -10 -9 0 -20 5 -23 10
-8 13 5 13 25 0z m4918 -37 c15 -51 100 -198 174 -303 33 -47 50 -76 37 -64
-13 11 -90 78 -171 148 -136 118 -147 130 -136 150 16 31 72 105 79 106 3 0
11 -17 17 -37z m-4801 -8 c32 -19 69 -35 82 -35 27 0 36 -5 232 -139 120 -82
291 -234 348 -311 14 -18 39 -39 57 -46 30 -13 99 -99 144 -182 69 -126 95
-170 110 -187 10 -11 21 -34 24 -51 4 -17 18 -47 32 -65 13 -18 34 -65 45
-104 12 -38 30 -89 40 -113 10 -23 19 -53 19 -65 0 -12 9 -51 20 -87 11 -36
20 -79 20 -96 0 -17 7 -48 16 -69 12 -30 13 -43 4 -66 -7 -16 -10 -45 -6 -66
22 -151 28 -205 25 -253 -1 -30 -2 -68 -1 -85 7 -103 0 -209 -15 -231 -12 -19
-13 -30 -4 -55 15 -44 14 -101 -3 -125 -8 -11 -20 -49 -26 -85 -6 -35 -16 -77
-22 -94 -6 -16 -10 -47 -9 -67 2 -39 -33 -178 -47 -187 -11 -7 -55 -90 -82
-153 -11 -27 -22 -48 -23 -48 -8 0 7 118 16 129 7 8 12 39 13 70 0 31 11 101
24 156 24 103 25 114 14 201 -4 37 -1 60 10 81 12 24 13 38 5 69 -7 23 -8 74
-4 130 6 78 4 98 -10 122 -16 26 -16 31 -2 58 9 18 11 36 6 49 -4 11 -8 49 -8
85 -1 63 -20 154 -37 182 -5 7 -9 45 -10 83 0 50 -8 88 -26 135 -14 36 -29 89
-32 119 -4 29 -19 75 -33 103 -14 27 -28 70 -31 96 -2 26 -13 56 -24 68 -10
12 -23 37 -29 57 -10 37 -63 133 -98 179 -12 14 -21 31 -21 36 0 23 -50 120
-65 125 -8 4 -24 27 -35 51 -10 25 -28 49 -38 55 -11 6 -29 30 -41 53 -11 24
-44 70 -72 103 -28 33 -61 76 -74 96 -13 20 -48 53 -79 73 -31 20 -56 41 -56
46 0 20 -66 83 -108 103 -25 11 -70 47 -101 80 -31 32 -73 68 -93 78 -21 11
-38 22 -38 24 0 15 46 1 97 -30z m6185 -14 c27 -30 45 -89 35 -115 -8 -20 -72
-31 -116 -20 -31 8 -36 13 -39 41 -2 25 3 39 24 60 23 23 26 31 17 54 -10 26
-10 27 21 18 17 -5 43 -22 58 -38z m-562 -21 c0 -28 -3 -30 -35 -30 -29 0 -35
4 -35 20 0 12 10 24 23 30 38 15 47 12 47 -20z m-2300 -50 c18 -9 15 -16 -33
-88 -29 -44 -79 -129 -111 -190 -33 -61 -62 -110 -64 -107 -7 7 90 380 102
387 16 11 84 10 106 -2z m2090 -25 c0 -33 -2 -35 -35 -35 -63 0 -42 45 33 69
1 1 2 -15 2 -34z m1020 -20 c0 -33 -2 -35 -35 -35 -29 0 -35 4 -35 20 0 17 39
45 68 50 1 0 2 -16 2 -35z m-2377 -122 c-4 -38 -7 -153 -6 -258 2 -126 -1
-185 -7 -175 -21 31 -61 177 -85 303 -24 131 -24 132 -4 152 19 19 70 43 97
44 11 1 12 -13 5 -66z m2712 -55 c22 -10 25 -17 25 -59 0 -55 -15 -65 -80 -54
-42 7 -52 28 -27 54 10 11 9 14 -1 18 -10 4 -8 11 9 29 25 27 37 29 74 12z
m-275 -88 c0 -28 -3 -30 -35 -30 -29 0 -35 4 -35 20 0 12 10 24 23 30 38 15
47 12 47 -20z m520 -130 c0 -27 -3 -30 -31 -30 -26 0 -30 3 -27 22 2 14 13 25
28 29 14 4 26 7 28 8 1 1 2 -12 2 -29z m-3450 -40 c0 -26 -4 -30 -28 -30 -16
0 -31 3 -34 6 -11 10 4 43 21 47 35 10 41 7 41 -23z m3300 -50 c0 -28 -3 -30
-35 -30 -29 0 -35 4 -35 20 0 12 10 24 23 30 38 15 47 12 47 -20z m-3230 -160
c0 -27 -3 -30 -30 -30 -25 0 -30 4 -30 24 0 23 4 26 53 35 4 0 7 -12 7 -29z
m205 18 c22 -10 25 -18 25 -58 0 -54 -12 -62 -80 -53 -33 5 -40 10 -40 27 0
12 5 27 12 34 9 9 9 12 -2 12 -9 0 -5 9 10 25 26 28 38 30 75 13z m3495 -68
c0 -28 -3 -30 -36 -30 -31 0 -35 3 -32 22 3 19 24 32 61 37 4 1 7 -12 7 -29z
m-3485 -172 c0 -30 -3 -33 -32 -36 -29 -3 -33 0 -33 21 0 18 8 27 33 35 17 5
32 10 32 11 0 1 0 -14 0 -31z m-4140 -138 c44 -15 99 -35 121 -44 87 -32 364
-239 364 -271 0 -7 29 -42 64 -78 35 -37 75 -91 89 -120 13 -28 41 -72 62 -96
37 -45 95 -150 95 -173 0 -7 17 -48 39 -93 42 -87 56 -125 77 -198 7 -26 20
-57 28 -69 9 -12 16 -35 16 -50 0 -14 5 -39 12 -55 6 -15 14 -50 18 -78 4 -27
21 -103 38 -169 18 -65 32 -135 32 -155 0 -21 7 -61 15 -89 9 -29 20 -107 24
-175 l9 -122 -33 -58 c-34 -62 -45 -60 -45 7 0 17 -7 56 -16 86 -8 30 -23 101
-33 157 -10 56 -25 113 -35 127 -9 14 -16 40 -16 57 0 17 -9 47 -21 66 -12 18
-19 43 -16 53 7 28 -10 98 -32 129 -10 14 -28 66 -40 114 -12 49 -33 109 -46
135 -58 113 -165 338 -165 348 0 6 -7 18 -16 25 -9 7 -33 47 -53 89 -35 69
-69 120 -230 335 -56 74 -102 124 -221 239 -61 59 -156 127 -200 142 l-35 13
35 0 c19 0 71 -13 115 -29z m4046 -90 c15 -8 19 -22 19 -60 l0 -50 -60 0 c-56
0 -60 2 -60 23 0 13 6 29 13 36 10 11 9 14 -1 18 -10 4 -9 9 4 24 19 21 55 25
85 9z m-131 -215 c0 -33 -2 -35 -35 -35 -31 0 -35 3 -35 25 0 19 7 26 33 34
17 5 33 10 35 10 1 1 2 -15 2 -34z m526 -137 c-19 -27 -21 -79 -4 -125 10 -28
9 -38 -6 -64 -13 -22 -16 -40 -11 -69 5 -28 2 -45 -10 -64 -14 -21 -15 -30 -4
-60 10 -29 10 -42 -1 -77 -8 -23 -14 -58 -13 -78 1 -20 1 -51 2 -68 0 -36 1
-88 2 -143 1 -19 -8 -66 -20 -104 -17 -55 -19 -71 -9 -78 19 -12 28 -10 34 7
4 8 23 25 45 37 24 13 40 31 44 47 5 24 125 141 145 141 5 0 23 26 41 58 18
31 52 77 74 102 58 63 85 104 85 129 0 12 10 30 23 41 61 56 117 135 117 166
0 14 7 39 17 57 l16 32 18 -54 c9 -30 17 -78 16 -106 -1 -34 6 -66 22 -97 20
-43 22 -56 15 -141 -4 -63 -3 -101 5 -115 6 -11 11 -42 11 -69 -1 -135 -7
-240 -14 -256 -5 -11 -4 -34 4 -56 10 -32 10 -43 -3 -67 -8 -16 -18 -43 -22
-61 -3 -18 -18 -41 -32 -51 -24 -18 -26 -22 -14 -49 l12 -30 31 29 c29 27 56
47 188 136 88 59 105 76 141 141 17 31 47 72 68 92 57 55 111 130 111 152 0
23 47 97 61 97 18 0 49 41 49 64 0 13 10 35 21 50 12 15 26 46 31 68 5 22 15
49 22 59 11 17 14 6 19 -78 6 -90 9 -99 34 -119 25 -19 26 -23 14 -51 -10 -25
-10 -39 5 -82 11 -33 15 -68 11 -99 -4 -35 -1 -53 13 -72 13 -20 18 -55 23
-169 9 -187 25 -210 85 -122 40 58 79 96 108 105 20 6 99 99 125 147 7 13 25
40 40 59 15 19 30 44 33 56 4 12 20 33 37 48 27 25 30 32 24 66 -6 36 -4 40
24 55 27 13 31 21 31 54 0 27 8 49 24 68 17 21 25 46 31 98 4 39 13 82 21 97
8 15 14 49 15 75 1 26 4 59 8 73 7 21 10 16 20 -35 14 -71 37 -128 67 -170 35
-48 46 -74 60 -142 7 -36 22 -79 33 -97 15 -23 19 -42 15 -67 -5 -27 -1 -39
18 -60 16 -17 30 -50 38 -90 7 -35 19 -76 26 -90 7 -15 13 -46 13 -70 -1 -24
5 -68 12 -97 10 -41 10 -59 1 -85 -13 -37 -16 -107 -4 -106 4 0 48 48 97 106
50 58 105 121 123 139 21 22 32 42 32 62 0 36 25 110 45 132 8 9 18 32 21 51
4 19 15 43 24 54 20 21 30 146 16 195 -4 17 2 46 18 87 l24 63 -19 62 c-21 70
-24 135 -8 158 9 13 10 13 6 0 -2 -8 10 -44 28 -80 18 -36 36 -81 39 -101 4
-21 15 -48 25 -61 11 -13 27 -53 36 -89 9 -35 25 -73 35 -84 26 -28 40 -69 40
-117 0 -24 12 -65 29 -102 16 -33 32 -77 36 -96 4 -19 14 -47 21 -62 8 -15 14
-47 14 -71 0 -45 32 -160 50 -182 9 -11 8 -39 -5 -187 -3 -36 -1 -48 10 -48
20 0 65 58 65 84 0 24 50 76 91 93 18 8 36 32 58 78 17 37 31 75 31 85 0 30
27 84 54 109 18 17 26 35 26 58 0 19 9 46 20 61 22 30 40 111 40 179 0 27 4
42 10 38 6 -3 10 -15 10 -26 0 -33 43 -98 74 -110 27 -12 54 -57 69 -119 4
-14 22 -48 41 -77 19 -29 38 -63 41 -75 4 -13 23 -50 41 -84 22 -39 34 -75 34
-98 0 -21 8 -50 19 -64 10 -15 21 -40 25 -57 l6 -30 -25 28 c-14 15 -25 39
-25 52 0 13 -13 39 -29 57 -15 18 -44 58 -64 88 -19 30 -53 73 -76 95 -27 27
-41 49 -41 66 0 33 -25 57 -34 33 -3 -8 -6 -24 -6 -34 0 -10 -18 -40 -39 -68
-44 -55 -81 -123 -81 -147 0 -20 -105 -132 -131 -140 -10 -3 -35 -29 -56 -58
-20 -29 -57 -76 -82 -104 -38 -45 -50 -53 -78 -53 -27 0 -37 -6 -51 -30 -18
-32 -39 -42 -26 -12 16 36 16 103 0 149 -10 27 -20 86 -23 133 -4 52 -13 99
-24 122 -11 21 -19 50 -19 65 -1 15 -7 39 -15 53 -8 14 -14 44 -15 67 0 23
-11 68 -25 99 -14 31 -25 73 -25 93 0 24 -9 49 -25 71 -14 19 -25 39 -25 46 0
7 -5 16 -11 20 -8 4 -9 0 -4 -15 7 -23 -15 -90 -70 -207 -19 -41 -35 -87 -35
-102 0 -20 -8 -33 -31 -46 -28 -17 -30 -21 -24 -57 7 -38 6 -39 -37 -58 -50
-22 -83 -55 -92 -93 -4 -20 -14 -29 -34 -33 -15 -3 -48 -17 -73 -30 -26 -14
-54 -25 -62 -25 -9 0 -37 -11 -63 -25 -26 -14 -56 -25 -68 -25 -19 0 -18 2 8
23 l29 23 -11 65 c-7 35 -9 80 -6 99 3 19 -1 63 -10 96 -9 34 -16 81 -16 105
0 24 -7 69 -16 99 -9 30 -19 92 -23 138 -7 72 -12 87 -35 110 -27 27 -27 27
-42 7 -8 -11 -18 -31 -21 -45 -15 -64 -73 -166 -102 -182 -25 -14 -31 -24 -31
-50 0 -27 -15 -51 -81 -128 -45 -52 -92 -120 -106 -150 -29 -66 -65 -106 -109
-120 -30 -10 -48 -31 -99 -114 -5 -9 -37 -24 -70 -33 -33 -9 -70 -25 -82 -36
-12 -10 -26 -16 -32 -12 -16 9 -14 51 4 84 12 24 14 67 10 232 -4 222 -8 265
-32 321 -9 20 -13 49 -11 63 4 16 1 24 -6 22 -6 -2 -12 -12 -14 -23 -2 -10
-18 -28 -35 -39 -22 -14 -33 -29 -35 -50 -3 -23 -27 -52 -100 -123 -53 -51
-116 -102 -139 -113 -24 -11 -67 -45 -95 -75 -39 -40 -60 -54 -81 -54 -16 0
-47 -11 -70 -24 -49 -29 -147 -57 -175 -49 -11 2 -34 -3 -52 -12 -21 -11 -45
-15 -67 -12 -22 4 -44 0 -62 -11 -24 -13 -33 -14 -56 -4 l-27 12 21 23 c83 90
135 172 157 244 8 25 18 51 23 57 4 6 16 33 25 60 9 27 22 56 30 65 22 24 41
421 21 421 -14 0 -68 -57 -84 -87 -7 -13 -19 -23 -27 -23 -9 0 -44 -29 -78
-65 -40 -42 -70 -65 -85 -65 -14 0 -29 -12 -42 -35 -16 -26 -28 -35 -48 -35
-30 0 -56 -16 -126 -78 -27 -25 -66 -51 -85 -59 -49 -19 -112 -53 -133 -71
-36 -32 -257 -90 -257 -68 0 3 12 18 28 34 28 30 96 136 112 175 47 115 89
251 84 272 -4 16 0 35 11 52 27 40 48 140 46 218 -1 38 -4 71 -6 73 -2 3 -16
-5 -31 -17 -15 -11 -35 -21 -46 -21 -27 0 -129 -45 -181 -80 -77 -52 -167 -84
-167 -60 0 19 72 90 92 90 27 0 145 86 154 112 3 11 50 64 105 118 54 54 112
120 129 146 17 27 43 58 58 70 l27 22 3 -39 c2 -24 -3 -48 -12 -61z m-546
-163 c0 -33 -2 -35 -35 -35 -28 0 -35 4 -35 19 0 21 16 37 45 44 11 2 21 5 23
6 1 0 2 -15 2 -34z m-1750 -35 c0 -28 -3 -30 -35 -30 -29 0 -35 4 -35 20 0 12
10 24 23 30 38 15 47 12 47 -20z m1540 -114 c0 -43 0 -43 -41 -50 -22 -4 -44
-4 -50 -1 -13 9 -11 62 3 71 10 6 58 20 81 23 4 1 7 -19 7 -43z m-210 -26 c0
-28 -3 -30 -36 -30 -31 0 -35 3 -32 22 3 19 24 32 61 37 4 1 7 -12 7 -29z
m-1310 -80 c0 -28 -3 -30 -35 -30 -34 0 -43 12 -27 36 6 10 26 19 55 23 4 0 7
-12 7 -29z m998 -61 c-7 -5 -23 -9 -36 -9 -20 0 -23 4 -20 27 2 22 9 29 33 33
26 5 30 2 33 -19 2 -13 -2 -28 -10 -32z m-213 9 c22 -10 25 -17 25 -59 0 -55
-15 -65 -80 -54 -33 6 -40 11 -40 29 0 12 5 27 12 34 9 9 9 12 -2 12 -9 0 -5
9 10 25 26 28 38 30 75 13z m-835 -148 c0 -28 -3 -30 -36 -30 -31 0 -35 3 -32
22 3 19 24 32 61 37 4 1 7 -12 7 -29z m-462 -81 c-25 -16 -58 -10 -58 10 0 22
17 37 45 43 15 2 21 -3 23 -21 2 -13 -2 -28 -10 -32z m1090 14 c29 -18 52 -70
52 -118 l0 -35 -74 0 c-58 0 -75 3 -80 16 -12 32 -5 56 24 85 24 24 28 34 20
49 -6 10 -10 22 -10 25 0 9 40 -4 68 -22z m-224 -5 c9 -36 8 -38 -29 -38 -29
0 -35 4 -35 20 0 12 10 24 23 30 32 13 34 12 41 -12z m-494 -178 l0 -50 -51 0
-50 0 3 38 c3 35 6 38 48 49 25 6 46 12 48 12 1 1 2 -21 2 -49z m-200 -40 c0
-28 -3 -30 -36 -30 -31 0 -35 3 -32 22 3 19 24 32 61 37 4 1 7 -12 7 -29z
m365 -10 c-3 -5 -11 -10 -16 -10 -6 0 -7 5 -4 10 3 6 11 10 16 10 6 0 7 -4 4
-10z m225 -33 c9 -7 15 -30 16 -59 l0 -48 -63 0 c-58 0 -63 2 -63 22 0 12 7
30 17 40 12 13 13 18 3 18 -9 0 -8 6 5 20 20 22 62 26 85 7z m-330 -69 c-28
-34 -50 -65 -50 -70 0 -4 -13 -14 -30 -23 -16 -8 -39 -33 -50 -55 -11 -22 -25
-40 -30 -40 -12 0 -120 -134 -120 -148 0 -6 -13 -26 -28 -44 -16 -18 -72 -99
-125 -179 -52 -80 -102 -149 -110 -152 -7 -3 -24 -31 -37 -64 -13 -32 -41 -82
-63 -111 -22 -29 -58 -88 -79 -130 -22 -42 -51 -99 -65 -127 -14 -27 -31 -57
-38 -65 -7 -8 -20 -40 -30 -70 -10 -30 -42 -99 -72 -153 -30 -54 -63 -121 -72
-150 -30 -85 -88 -229 -110 -272 -12 -22 -21 -58 -21 -82 0 -24 -4 -43 -9 -43
-14 0 -20 120 -10 205 6 44 13 128 18 188 6 87 12 113 29 137 12 16 22 44 22
62 0 19 9 51 20 73 11 22 20 47 20 56 0 23 53 139 94 208 19 31 53 92 76 136
23 44 52 91 65 105 12 14 47 64 78 111 30 47 62 89 71 92 9 4 25 21 36 39 21
36 145 172 228 252 29 28 88 85 130 126 42 41 97 88 122 105 25 16 73 55 107
87 34 32 66 58 72 58 6 0 -12 -28 -39 -62z m-440 -48 c0 -28 -3 -30 -35 -30
-29 0 -35 4 -35 20 0 12 10 24 23 30 38 15 47 12 47 -20z m560 -59 c0 -23 -5
-30 -27 -34 -34 -7 -47 4 -39 31 4 13 18 22 34 25 15 2 28 5 30 6 1 0 2 -12 2
-28z m-624 -100 c2 -54 -6 -61 -73 -61 -29 0 -33 3 -33 28 0 38 9 47 60 64 25
9 45 16 45 17 0 0 1 -21 1 -48z m484 -141 c0 -28 -3 -30 -35 -30 -29 0 -35 4
-35 20 0 12 10 24 23 30 38 15 47 12 47 -20z m-672 -131 c-7 -5 -23 -9 -35 -9
-18 0 -23 6 -23 25 0 19 7 26 33 33 29 8 32 6 35 -16 2 -14 -2 -29 -10 -33z
m727 29 c22 -10 25 -17 25 -65 l0 -53 -44 0 c-24 0 -51 3 -60 6 -18 7 -21 39
-5 49 6 4 8 13 5 21 -6 15 26 54 44 54 5 0 21 -5 35 -12z m-373 -183 c-4 -31
-8 -35 -33 -35 -24 0 -29 4 -29 23 0 17 8 26 33 34 17 5 32 11 32 12 1 0 -1
-15 -3 -34z m-534 -32 c-2 -22 -9 -29 -30 -31 -24 -3 -28 0 -28 21 0 13 3 27
7 30 3 4 17 7 30 7 21 0 24 -4 21 -27z m5118 -85 c-10 -47 -11 -49 -14 -21 -3
27 11 73 22 73 1 0 -2 -24 -8 -52z m-4636 -38 c0 -28 -3 -30 -35 -30 -29 0
-35 4 -35 20 0 12 10 24 23 30 38 15 47 12 47 -20z m-510 -60 l0 -50 -55 0
c-50 0 -55 2 -55 23 0 35 16 51 62 64 24 6 44 11 46 12 1 1 2 -21 2 -49z
m5114 -72 c-11 -46 -25 -82 -40 -99 -18 -19 -24 -36 -24 -72 0 -59 -31 -142
-63 -167 -20 -16 -26 -32 -31 -84 -6 -52 -12 -68 -35 -88 -19 -17 -31 -42 -40
-84 -22 -102 -34 -133 -52 -139 -27 -9 -104 -110 -137 -181 -16 -33 -41 -70
-56 -81 -14 -12 -33 -37 -41 -57 -9 -20 -19 -36 -23 -36 -12 0 -136 -123 -155
-153 -10 -15 -42 -43 -70 -61 -29 -19 -58 -45 -64 -59 -8 -16 -23 -28 -45 -32
-18 -4 -49 -22 -70 -39 -79 -68 -205 -136 -288 -155 -30 -7 -100 -35 -155 -61
-141 -68 -251 -99 -435 -121 -195 -23 -226 -27 -270 -39 -48 -12 -115 -9 -190
9 -31 7 -68 7 -120 0 -47 -7 -84 -7 -100 -1 -17 6 -34 5 -55 -4 -28 -11 -35
-10 -61 7 -22 14 -47 19 -104 19 -41 1 -100 7 -130 14 -37 9 -64 10 -80 4 -16
-6 -40 -5 -67 1 -23 6 -54 11 -69 11 -16 0 -39 11 -55 26 -22 21 -30 24 -47
15 -32 -17 -74 -13 -117 10 -22 12 -62 22 -90 24 -58 3 -162 32 -221 63 -36
18 -46 20 -73 9 -29 -10 -38 -8 -120 36 -49 26 -102 47 -117 47 -16 0 -56 13
-89 28 -33 16 -84 32 -114 36 -30 4 -70 14 -90 23 -20 9 -51 18 -70 22 -24 4
-39 15 -51 36 -13 24 -24 31 -56 33 -21 2 -48 12 -60 23 -12 11 -39 23 -60 26
-21 4 -64 21 -96 40 -31 18 -68 33 -82 33 -14 0 -26 4 -26 9 0 10 9 8 120 -21
105 -27 131 -38 162 -66 21 -19 33 -23 56 -17 20 4 41 1 60 -9 16 -8 50 -15
74 -14 50 1 149 -25 184 -49 14 -9 34 -13 48 -9 36 9 162 -20 196 -45 25 -19
37 -21 92 -16 48 5 78 2 126 -12 50 -16 70 -17 94 -9 24 9 36 8 58 -6 16 -9
45 -16 67 -16 21 -1 49 -7 63 -14 21 -12 29 -12 54 1 21 11 44 13 80 9 28 -3
71 -9 96 -12 25 -3 74 -12 109 -21 49 -11 74 -12 100 -5 91 26 140 35 191 34
30 -1 95 -1 144 -1 49 0 102 -5 116 -11 23 -10 36 -7 81 14 42 21 68 26 126
26 40 0 92 4 115 10 24 5 88 19 143 31 55 12 120 30 145 41 25 11 70 22 100
25 40 4 62 12 82 30 22 21 32 24 65 18 32 -5 42 -2 58 16 24 25 87 59 112 59
10 0 48 13 86 28 49 20 73 36 87 60 20 32 75 62 115 62 26 0 116 55 160 98 17
16 43 33 58 36 20 5 32 16 39 37 6 19 24 37 47 49 21 10 43 26 51 35 8 9 30
25 50 35 20 10 45 31 54 45 10 15 31 31 47 37 17 6 37 24 47 43 35 66 93 145
107 145 23 0 75 51 100 99 13 25 56 82 96 126 79 89 109 139 109 183 0 22 9
36 33 55 34 26 57 79 57 131 0 18 7 29 23 35 34 13 39 -8 21 -91z m1924 20
c-11 -50 -18 -61 -18 -27 0 33 11 69 20 69 4 0 4 -19 -2 -42z m-7238 2 c0 -25
-4 -30 -25 -30 -14 0 -28 0 -32 0 -5 0 -8 10 -8 22 0 15 8 24 25 29 39 11 40
11 40 -21z m-130 -25 c0 -33 -2 -35 -35 -35 -30 0 -35 3 -35 23 0 17 8 26 33
34 17 5 33 11 35 12 1 0 2 -15 2 -34z m-903 -111 c-3 -3 -12 -4 -19 -1 -8 3
-5 6 6 6 11 1 17 -2 13 -5z m8190 -66 c-3 -7 -5 -2 -5 12 0 14 2 19 5 13 2 -7
2 -19 0 -25z m-7387 -58 l0 -50 -50 0 c-55 0 -66 11 -52 50 7 18 22 28 53 36
24 7 45 12 47 13 1 1 2 -21 2 -49z m7384 24 c11 -27 7 -43 -28 -118 -19 -39
-39 -90 -45 -111 -6 -23 -30 -59 -59 -89 -43 -44 -51 -60 -62 -116 -7 -36 -21
-74 -31 -85 -10 -11 -30 -47 -45 -80 -15 -33 -45 -80 -67 -105 -21 -25 -47
-61 -57 -81 -11 -21 -32 -41 -50 -49 -20 -8 -32 -22 -36 -39 -9 -45 -30 -75
-73 -104 -27 -19 -51 -48 -70 -85 -21 -41 -46 -70 -88 -103 -33 -25 -73 -67
-89 -92 -16 -26 -41 -52 -57 -58 -16 -7 -34 -26 -41 -43 -7 -17 -25 -37 -40
-45 -15 -8 -36 -30 -47 -48 -11 -18 -27 -33 -34 -33 -8 0 -38 -9 -67 -20 -41
-15 -62 -32 -95 -74 -28 -36 -59 -61 -90 -76 -102 -47 -116 -56 -131 -88 -10
-21 -25 -34 -42 -38 -76 -14 -105 -29 -120 -62 -13 -31 -17 -33 -55 -30 -37 3
-41 0 -55 -30 -14 -31 -18 -33 -53 -29 -37 5 -44 2 -70 -36 -7 -9 -42 -26 -78
-36 -36 -10 -89 -35 -117 -55 -29 -20 -60 -36 -70 -36 -10 0 -36 -10 -57 -21
-22 -12 -55 -21 -73 -20 -19 1 -48 -7 -67 -19 -19 -12 -75 -34 -125 -50 -55
-17 -97 -36 -106 -48 -16 -23 -94 -47 -123 -37 -14 4 -34 -1 -56 -15 -25 -15
-43 -20 -64 -15 -21 4 -35 0 -57 -18 -16 -13 -59 -31 -96 -41 -37 -10 -75 -24
-85 -32 -10 -7 -43 -14 -73 -14 -73 -1 -162 -21 -234 -54 -59 -26 -107 -62
-194 -147 -26 -25 -74 -62 -107 -83 -33 -21 -73 -51 -90 -66 -30 -28 -125 -72
-185 -85 -19 -4 -36 -16 -42 -31 -6 -13 -39 -42 -73 -64 -54 -35 -66 -39 -89
-30 -39 14 -44 13 -60 -17 -26 -51 -65 -70 -167 -82 -108 -13 -143 -24 -181
-59 -25 -23 -32 -25 -102 -19 -57 4 -79 2 -96 -10 -20 -14 -25 -14 -57 1 -29
14 -41 15 -70 5 -45 -14 -100 -4 -136 27 -16 13 -36 24 -45 24 -19 0 -105 40
-99 46 2 3 17 0 32 -6 20 -8 49 -8 102 0 68 11 75 10 102 -9 35 -25 146 -29
189 -7 15 7 58 19 96 25 38 7 82 19 97 27 15 8 37 14 47 14 26 0 113 48 130
71 8 12 25 19 46 19 19 0 52 13 79 30 26 17 70 41 97 55 27 14 54 34 60 46 7
11 28 27 48 36 20 8 49 28 64 44 16 17 37 29 53 29 18 0 50 23 114 83 59 55
112 94 163 119 76 39 158 109 183 158 16 30 59 50 110 50 18 0 44 9 59 21 19
15 45 22 84 24 62 4 138 33 167 65 14 16 26 19 55 14 45 -7 101 9 125 36 11
12 31 20 49 20 17 0 46 9 64 20 24 15 43 19 66 14 26 -4 48 2 97 26 35 18 75
41 88 51 13 11 32 19 43 19 10 0 52 10 94 22 61 18 79 28 90 50 17 32 154 103
227 117 30 5 62 20 85 40 20 17 71 49 113 70 41 22 81 46 88 55 8 9 21 16 30
16 24 0 204 110 274 167 33 27 87 73 120 104 34 31 78 61 97 68 39 12 51 23
142 128 51 59 69 73 92 73 35 0 90 40 111 79 8 16 27 34 44 41 31 13 81 75 81
102 0 18 112 138 129 138 10 0 70 74 118 145 13 20 34 36 52 40 38 8 111 115
111 164 0 42 26 80 66 97 40 17 76 65 94 124 25 88 43 131 59 140 24 14 38 12
45 -6z m-7214 -49 c0 -33 -2 -35 -35 -35 -31 0 -35 3 -35 25 0 19 7 26 33 34
17 5 33 10 35 10 1 1 2 -15 2 -34z m4120 -175 c-6 -10 -22 -27 -36 -37 -14
-10 -47 -38 -72 -62 -26 -24 -73 -63 -106 -87 -32 -24 -67 -55 -77 -68 -11
-14 -30 -28 -42 -32 -20 -6 -80 -44 -202 -129 -27 -19 -56 -35 -65 -35 -17 0
-106 -45 -130 -65 -8 -7 -42 -21 -75 -31 -33 -10 -73 -28 -88 -41 -17 -14 -42
-23 -61 -23 -19 0 -44 -8 -57 -18 -41 -31 -153 -67 -254 -82 -27 -4 -76 -17
-107 -29 -73 -27 -257 -56 -328 -51 -30 2 -70 3 -87 2 -98 -5 -257 3 -274 14
-14 8 -121 16 -197 15 -49 -1 -159 29 -237 64 -28 13 -61 22 -72 19 -11 -3
-40 3 -64 14 -24 11 -69 28 -99 38 -30 9 -64 25 -75 35 -11 9 -59 29 -107 43
-47 15 -97 35 -110 45 -13 11 -45 30 -70 43 -104 53 -145 77 -158 93 -13 16
-11 17 30 10 25 -4 62 -18 82 -32 28 -19 44 -24 64 -19 20 5 42 -1 85 -24 42
-22 69 -30 101 -29 58 3 131 -9 200 -32 31 -10 76 -21 100 -25 24 -3 57 -10
75 -16 68 -20 223 -34 318 -28 48 3 158 -8 185 -18 16 -6 62 -6 123 -1 79 8
103 7 126 -5 25 -14 35 -13 90 4 47 14 70 16 96 9 22 -6 56 -6 97 1 35 5 91
10 125 10 45 0 79 7 119 25 33 14 75 25 101 25 56 0 155 24 255 61 42 16 83
29 91 29 8 0 60 23 116 50 56 28 115 50 130 50 17 0 40 11 58 29 16 15 52 36
79 46 89 33 277 147 342 207 67 62 79 69 62 38z m-4200 -59 c0 -21 -6 -30 -22
-35 -42 -11 -49 -7 -46 21 2 19 10 29 28 34 39 11 40 11 40 -20z m-62 -256
c-2 -2 -24 -6 -50 -10 -39 -6 -49 -4 -54 9 -12 30 5 65 34 72 15 3 36 9 47 13
18 7 20 4 23 -37 2 -24 2 -45 0 -47z m-68 -380 c0 -33 -2 -35 -35 -35 -31 0
-35 3 -35 25 0 19 7 26 33 34 17 5 33 10 35 10 1 1 2 -15 2 -34z m2265 -2115
c3 -5 1 -10 -4 -10 -6 0 -11 5 -11 10 0 6 2 10 4 10 3 0 8 -4 11 -10z m265
-390 c0 -6 -14 -24 -30 -42 -25 -26 -30 -37 -24 -60 4 -19 0 -37 -10 -53 -9
-13 -16 -37 -16 -52 0 -16 -11 -62 -24 -103 -12 -41 -24 -97 -25 -125 -6 -124
-9 -152 -20 -180 -7 -16 -14 -59 -16 -95 -2 -36 -11 -87 -20 -114 -10 -28 -14
-62 -11 -78 4 -19 -3 -50 -19 -89 -13 -33 -27 -88 -31 -122 -10 -92 -24 -113
-84 -126 -28 -6 -98 -11 -155 -11 -65 0 -106 -4 -111 -11 -8 -14 14 -29 43
-29 13 0 30 -11 39 -25 18 -28 72 -55 108 -55 12 0 37 -11 57 -24 19 -13 46
-26 59 -28 24 -3 25 -7 26 -78 1 -51 -4 -84 -14 -102 -13 -22 -13 -31 -3 -56
16 -38 9 -51 -23 -45 -17 4 -44 -6 -83 -30 -59 -36 -167 -77 -202 -77 -20 0
-35 -25 -25 -41 3 -5 16 -6 29 -3 18 4 30 -1 47 -18 37 -39 84 -68 110 -68 13
0 33 -6 43 -14 18 -13 18 -14 -3 -20 -24 -8 -99 11 -123 31 -10 8 -43 18 -75
23 -91 14 -162 27 -244 45 -59 13 -179 33 -210 35 -3 0 -6 21 -6 48 -1 26 -3
58 -4 72 -5 39 11 260 21 310 6 25 15 83 20 130 6 47 21 128 34 180 13 52 27
136 29 187 6 91 10 108 48 191 14 31 19 59 16 100 l-3 57 37 6 c23 3 48 17 65
36 15 16 51 38 78 48 28 10 64 31 80 47 17 15 41 28 53 28 20 0 49 22 136 103
23 20 52 40 66 44 38 10 83 42 105 77 11 17 29 32 40 35 11 2 44 25 73 52 33
30 66 51 88 55 19 4 41 15 47 25 13 22 17 23 17 9z m-295 -1998 c-3 -3 -11 0
-18 7 -9 10 -8 11 6 5 10 -3 15 -9 12 -12z"/>
<path d="M10354 12845 c-34 -7 -79 -22 -101 -33 -47 -24 -100 -82 -109 -118
-11 -42 2 -110 30 -169 32 -65 46 -68 153 -33 130 43 205 154 190 281 -4 27
-9 52 -11 55 -3 3 -34 -9 -68 -26 -82 -40 -128 -88 -134 -138 -6 -50 5 -65 52
-73 l38 -6 -44 -33 c-51 -38 -87 -49 -102 -34 -6 6 -13 33 -16 61 -9 97 56
180 193 247 l70 34 -40 -1 c-22 0 -68 -7 -101 -14z"/>
<path d="M10294 12190 c20 -82 26 -159 16 -205 -12 -55 -49 -110 -80 -120 -36
-12 -21 -25 29 -25 103 0 152 70 131 189 -13 72 -26 101 -71 151 -29 32 -31
33 -25 10z"/>
<path d="M11276 12132 c-7 -12 -10 -11 158 -52 184 -44 319 -115 428 -225 96
-97 160 -237 160 -353 1 -79 14 -77 50 9 35 82 39 209 8 276 -47 104 -152 188
-300 243 -78 28 -248 67 -395 89 -33 5 -70 12 -81 16 -12 4 -25 2 -28 -3z"/>
<path d="M15885 3160 c-3 -11 -2 -28 4 -37 8 -15 10 -11 11 20 0 41 -5 47 -15
17z"/>
</g>
</svg>
